<svg width="192" height="32" viewBox="0 0 192 32" fill="none" xmlns="http://www.w3.org/2000/svg">
<path fill-rule="evenodd" clip-rule="evenodd" d="M16 0C7.16344 0 0 7.16344 0 16C0 24.8366 7.16344 32 16 32C24.8366 32 32 24.8366 32 16C32 7.16344 24.8366 0 16 0ZM17.6676 16.7028V25.4077H14.066V16.7031H12.2666V13.7034H14.066V11.9024C14.066 9.4552 15.082 8 17.9687 8H20.372V11.0001H18.8698C17.7461 11.0001 17.6717 11.4193 17.6717 12.2017L17.6676 13.7031H20.389L20.0706 16.7028H17.6676Z" fill="#DDDDDD"/>
<path fill-rule="evenodd" clip-rule="evenodd" d="M69.3333 0C60.4968 0 53.3333 7.16344 53.3333 16C53.3333 24.8366 60.4968 32 69.3333 32C78.1699 32 85.3333 24.8366 85.3333 16C85.3333 7.16344 78.1699 0 69.3333 0ZM65.8156 7.51835C66.7259 7.47693 67.0167 7.4668 69.3343 7.4668H69.3316C71.6498 7.4668 71.9396 7.47693 72.8499 7.51835C73.7583 7.55995 74.3788 7.70378 74.9228 7.9148C75.4846 8.13258 75.9592 8.42414 76.4339 8.89881C76.9086 9.37313 77.2001 9.84922 77.4188 10.4105C77.6286 10.9531 77.7726 11.5732 77.8152 12.4816C77.8561 13.3918 77.8668 13.6827 77.8668 16.0002C77.8668 18.3178 77.8561 18.6079 77.8152 19.5181C77.7726 20.4262 77.6286 21.0465 77.4188 21.5893C77.2001 22.1503 76.9086 22.6264 76.4339 23.1007C75.9598 23.5754 75.4844 23.8677 74.9233 24.0856C74.3804 24.2967 73.7596 24.4405 72.8511 24.4821C71.9409 24.5235 71.6509 24.5336 69.3332 24.5336C67.0158 24.5336 66.7252 24.5235 65.8149 24.4821C64.9067 24.4405 64.2864 24.2967 63.7435 24.0856C63.1826 23.8677 62.7065 23.5754 62.2323 23.1007C61.7578 22.6264 61.4663 22.1503 61.2481 21.5891C61.0373 21.0465 60.8935 20.4264 60.8517 19.5179C60.8104 18.6077 60.8001 18.3178 60.8001 16.0002C60.8001 13.6827 60.8108 13.3917 60.8515 12.4814C60.8924 11.5733 61.0364 10.9531 61.248 10.4103C61.4666 9.84922 61.7582 9.37313 62.2329 8.89881C62.7072 8.42432 63.1833 8.13276 63.7445 7.9148C64.2871 7.70378 64.9072 7.55995 65.8156 7.51835Z" fill="#DDDDDD"/>
<path fill-rule="evenodd" clip-rule="evenodd" d="M68.5688 9.00409C68.7174 9.00385 68.8773 9.00393 69.0499 9.004L69.3343 9.00409C71.6127 9.00409 71.8828 9.01226 72.7825 9.05315C73.6145 9.0912 74.0661 9.23022 74.3669 9.34702C74.7651 9.50169 75.049 9.68658 75.3475 9.98525C75.6462 10.2839 75.8311 10.5684 75.9861 10.9666C76.1029 11.267 76.2421 11.7186 76.28 12.5506C76.3209 13.4502 76.3298 13.7204 76.3298 15.9978C76.3298 18.2751 76.3209 18.5453 76.28 19.4449C76.2419 20.2769 76.1029 20.7285 75.9861 21.0289C75.8314 21.4271 75.6462 21.7107 75.3475 22.0092C75.0489 22.3079 74.7653 22.4928 74.3669 22.6474C74.0665 22.7648 73.6145 22.9034 72.7825 22.9415C71.883 22.9824 71.6127 22.9913 69.3343 22.9913C67.0557 22.9913 66.7857 22.9824 65.8861 22.9415C65.0541 22.9031 64.6025 22.7641 64.3015 22.6472C63.9033 22.4926 63.6189 22.3077 63.3202 22.009C63.0215 21.7104 62.8366 21.4266 62.6816 21.0282C62.5648 20.7278 62.4256 20.2762 62.3878 19.4442C62.3469 18.5446 62.3387 18.2744 62.3387 15.9956C62.3387 13.7168 62.3469 13.448 62.3878 12.5485C62.4258 11.7165 62.5648 11.2649 62.6816 10.9641C62.8363 10.5659 63.0215 10.2814 63.3202 9.98276C63.6189 9.68409 63.9033 9.4992 64.3015 9.34418C64.6024 9.22684 65.0541 9.08818 65.8861 9.04995C66.6733 9.0144 66.9784 9.00373 68.5688 9.00195V9.00409ZM73.8892 10.4206C73.3239 10.4206 72.8652 10.8787 72.8652 11.4443C72.8652 12.0096 73.3239 12.4683 73.8892 12.4683C74.4546 12.4683 74.9132 12.0096 74.9132 11.4443C74.9132 10.8789 74.4546 10.4202 73.8892 10.4202V10.4206ZM64.9521 15.9988C64.9521 13.5787 66.9142 11.6166 69.3342 11.6165C71.7543 11.6165 73.7159 13.5787 73.7159 15.9988C73.7159 18.4189 71.7545 20.3802 69.3344 20.3802C66.9143 20.3802 64.9521 18.4189 64.9521 15.9988Z" fill="#DDDDDD"/>
<path fill-rule="evenodd" clip-rule="evenodd" d="M69.334 13.1553C70.9049 13.1553 72.1785 14.4287 72.1785 15.9997C72.1785 17.5706 70.9049 18.8442 69.334 18.8442C67.763 18.8442 66.4896 17.5706 66.4896 15.9997C66.4896 14.4287 67.763 13.1553 69.334 13.1553V13.1553Z" fill="#DDDDDD"/>
<path fill-rule="evenodd" clip-rule="evenodd" d="M122.667 0C113.83 0 106.667 7.16344 106.667 16C106.667 24.8366 113.83 32 122.667 32C131.503 32 138.667 24.8366 138.667 16C138.667 7.16344 131.503 0 122.667 0ZM122.221 13.5582L122.187 13.0046C122.087 11.5697 122.971 10.259 124.37 9.75059C124.885 9.56981 125.758 9.54721 126.328 9.70539C126.552 9.77318 126.978 9.99916 127.28 10.2025L127.828 10.5754L128.432 10.3833C128.768 10.2816 129.216 10.1121 129.417 9.99916C129.608 9.89747 129.775 9.84097 129.775 9.87487C129.775 10.0669 129.361 10.7223 129.014 11.0838C128.544 11.5923 128.679 11.6375 129.63 11.2985C130.201 11.1064 130.212 11.1064 130.1 11.3211C130.033 11.4341 129.686 11.8295 129.317 12.1911C128.69 12.8125 128.656 12.8803 128.656 13.4001C128.656 14.2023 128.276 15.8745 127.895 16.7897C127.19 18.5071 125.679 20.281 124.168 21.1736C122.042 22.4277 119.21 22.7441 116.827 22.0097C116.032 21.7611 114.667 21.1284 114.667 21.0154C114.667 20.9815 115.081 20.9363 115.584 20.925C116.636 20.9024 117.688 20.6086 118.584 20.0889L119.188 19.7273L118.494 19.4901C117.509 19.1511 116.625 18.3715 116.401 17.6371C116.334 17.3998 116.357 17.3885 116.983 17.3885L117.632 17.3772L117.084 17.1173C116.435 16.7897 115.842 16.236 115.551 15.6711C115.338 15.2643 115.07 14.2362 115.148 14.1571C115.17 14.1232 115.405 14.191 115.674 14.2814C116.446 14.5638 116.547 14.496 116.099 14.0215C115.26 13.1628 115.002 11.886 115.405 10.6771L115.596 10.1347L116.334 10.8692C117.845 12.3493 119.625 13.2306 121.661 13.4905L122.221 13.5582Z" fill="#DDDDDD"/>
<path fill-rule="evenodd" clip-rule="evenodd" d="M176 0C167.163 0 160 7.16344 160 16C160 24.8366 167.163 32 176 32C184.837 32 192 24.8366 192 16C192 7.16344 184.837 0 176 0ZM182.668 10.5C183.402 10.7015 183.981 11.2953 184.177 12.0493C184.533 13.4158 184.533 16.2671 184.533 16.2671C184.533 16.2671 184.533 19.1183 184.177 20.485C183.981 21.239 183.402 21.8327 182.668 22.0343C181.337 22.4005 176 22.4005 176 22.4005C176 22.4005 170.663 22.4005 169.332 22.0343C168.598 21.8327 168.02 21.239 167.823 20.485C167.467 19.1183 167.467 16.2671 167.467 16.2671C167.467 16.2671 167.467 13.4158 167.823 12.0493C168.02 11.2953 168.598 10.7015 169.332 10.5C170.663 10.1338 176 10.1338 176 10.1338C176 10.1338 181.337 10.1338 182.668 10.5Z" fill="#DDDDDD"/>
<path fill-rule="evenodd" clip-rule="evenodd" d="M174.4 19.1995V13.8662L178.667 16.533L174.4 19.1995Z" fill="#DDDDDD"/>
</svg>
